# xmcd
#
# Track frame offsets:
#	150
#	29684
#	42556
#	62161
#	91400
#	129729
#	150444
#	169324
#	193756
#
# Disc length: 2795 seconds
#
# Revision: 1
# Processed by: cddbd v1.4PL0 Copyright (c) Steve Scherf et al.
# Submitted via: audiograbber 1.81.02
#
DISCID=7f0ae909
DTITLE=Alchemy - Alchemy
DYEAR=1900
DGENRE=
TTITLE0=Princess Died Last Night
TTITLE1=Serpents And Sirens
TTITLE2=Beautiful To Look Upon
TTITLE3=The Angels Know Your Name
TTITLE4=They Call This Place Temptation
TTITLE5=Beauty And Her Gravity
TTITLE6=Dying Of Thirst
TTITLE7=Poor Man's Lament
TTITLE8=When The Rain Prevailed
EXTD=
EXTT0=
EXTT1=
EXTT2=
EXTT3=
EXTT4=
EXTT5=
EXTT6=
EXTT7=
EXTT8=
PLAYORDER=
